<svg width="272" height="60" viewBox="0 0 272 60" fill="none" xmlns="http://www.w3.org/2000/svg">
<path d="M163.674 33.7165C158.039 33.7165 152.357 30.0673 150.094 24.4319C149.955 24.1085 149.955 23.7852 150.094 23.4618C150.232 23.1385 150.463 22.9075 150.787 22.7689L155.313 21.0136C155.96 20.7827 156.699 21.106 156.976 21.7527C157.207 22.3994 156.884 23.1385 156.237 23.4156L152.958 24.6628C155.729 29.7902 162.196 32.5155 167.231 30.5293C172.682 28.3582 173.79 22.3994 172.22 17.2258L164.321 20.136C163.674 20.3669 162.935 20.0436 162.704 19.3969C162.473 18.7502 162.797 18.0111 163.443 17.7801L172.543 14.4543C173.19 14.2233 173.883 14.5467 174.16 15.1934C177.209 22.7689 174.622 30.3907 168.201 32.9775C166.769 33.4394 165.245 33.7165 163.674 33.7165Z" fill="#8AA594"/>
<path d="M158.224 25.5404C158.177 25.5404 158.177 25.5404 158.131 25.5404C157.762 25.5404 157.438 25.3557 157.254 25.0785C154.805 22.1684 153.373 18.8426 153.096 15.6553C152.819 12.0061 154.112 8.8188 156.884 6.50918C162.658 1.65898 170.603 2.35186 175.453 8.07972C175.869 8.58784 175.823 9.37311 175.361 9.83503L159.101 25.1709C158.87 25.4019 158.547 25.5404 158.224 25.5404ZM165.476 5.81629C163.074 5.81629 160.626 6.69395 158.501 8.49545C154.066 12.237 155.221 18.0573 158.316 22.3994L172.636 8.86499C170.649 6.83252 168.109 5.81629 165.476 5.81629Z" fill="#8AA594"/>
<path d="M122.194 33.2547C121.501 33.2547 120.9 32.7004 120.9 31.9613V5.30828C120.9 4.61539 121.454 4.01489 122.194 4.01489H128.66C129.353 4.01489 129.954 4.5692 129.954 5.30828C129.954 6.04736 129.4 6.60167 128.66 6.60167H123.441V31.9613C123.487 32.6542 122.933 33.2547 122.194 33.2547Z" fill="#8AA594"/>
<path d="M107.458 33.2545C106.765 33.2545 106.165 32.7002 106.165 31.9611V18.473C106.165 17.7801 106.719 17.1796 107.458 17.1796C108.197 17.1796 108.752 17.7339 108.752 18.473V31.9611C108.752 32.654 108.151 33.2545 107.458 33.2545Z" fill="#8AA594"/>
<path d="M135.959 33.2546C135.266 33.2546 134.665 32.7003 134.665 31.9612V17.503C134.665 16.8101 135.22 16.2096 135.959 16.2096C136.652 16.2096 137.252 16.7639 137.252 17.503V31.9612C137.252 32.6541 136.698 33.2546 135.959 33.2546Z" fill="#8AA594"/>
<path d="M121.778 6.60167H115.68C114.988 6.60167 114.387 6.04736 114.387 5.30828C114.387 4.5692 114.941 4.01489 115.68 4.01489H121.778C122.471 4.01489 123.071 4.5692 123.071 5.30828C123.071 6.04736 122.471 6.60167 121.778 6.60167Z" fill="#8AA594"/>
<path d="M132.263 14.5467C131.94 14.5467 131.663 14.4081 131.386 14.2233C131.062 13.9 130.878 13.4381 131.016 12.9761L133.372 3.83003C133.464 3.4143 133.788 3.04476 134.204 2.95237C134.619 2.8138 135.081 2.90618 135.405 3.22953L142.241 9.18835C142.564 9.4655 142.749 9.92743 142.657 10.3894C142.564 10.8513 142.241 11.2208 141.825 11.3594L132.679 14.5467C132.541 14.5467 132.402 14.5467 132.263 14.5467ZM135.358 6.463L134.111 11.3132L138.961 9.60408L135.358 6.463Z" fill="#8AA594"/>
<path d="M107.782 14.7315C104.548 14.7315 101.915 12.1909 101.915 9.04981C101.915 5.77015 104.594 3.0448 107.782 3.0448C110.969 3.0448 113.648 5.81634 113.648 9.04981C113.648 12.1909 111.015 14.7315 107.782 14.7315ZM107.782 5.58538C106.026 5.58538 104.456 7.24831 104.456 9.04981C104.456 10.8051 105.934 12.1909 107.782 12.1909C109.629 12.1909 111.107 10.7589 111.107 9.04981C111.107 7.24831 109.537 5.58538 107.782 5.58538Z" fill="#8AA594"/>
<path d="M86.1635 33.4393C85.4706 33.4393 84.9163 32.885 84.8701 32.1921L84.8239 15.3781L85.101 5.16956C85.101 4.47667 85.7015 3.92236 86.3482 3.92236C94.2933 3.92236 101.037 10.805 101.037 18.9349C101.037 22.076 100.021 24.8937 97.9425 27.5267C95.171 31.1759 90.5979 33.4393 86.1635 33.4393ZM87.6416 6.55533L87.4107 15.4243L87.4568 30.8525C90.6903 30.483 93.9238 28.6353 96.0024 26.0023C97.7116 23.7851 98.543 21.5679 98.543 18.9811C98.543 12.6065 93.6466 7.20202 87.6416 6.55533Z" fill="#8AA594"/>
<path d="M29.7163 33.4394C29.0235 33.4394 28.4691 32.8851 28.4691 32.1923L27.5915 5.53924C27.5915 5.21589 27.7301 4.84635 27.961 4.61539C28.192 4.38443 28.5153 4.24585 28.8849 4.24585H38.5391C39.232 4.24585 39.8325 4.80016 39.8325 5.53924C39.8325 6.27832 39.2782 6.83262 38.5391 6.83262H30.1783L31.0097 32.1461C31.0097 32.8389 30.4554 33.4394 29.7163 33.4394Z" fill="#8AA594"/>
<path d="M239.984 33.6703C239.291 33.6703 238.691 33.116 238.691 32.3769V5.77007C238.691 5.07719 239.245 4.47668 239.984 4.47668H247.329C248.022 4.47668 248.622 5.03099 248.622 5.77007C248.622 6.50915 248.068 7.06346 247.329 7.06346H241.278V32.4231C241.278 33.116 240.723 33.6703 239.984 33.6703Z" fill="#8AA594"/>
<path d="M226.681 33.4393C225.988 33.4393 225.434 32.885 225.387 32.1921L225.249 12.8837C225.249 12.1908 225.803 11.5903 226.496 11.5903C227.189 11.5903 227.743 12.1446 227.789 12.8375L227.928 32.146C227.974 32.885 227.42 33.4393 226.681 33.4393Z" fill="#8AA594"/>
<path d="M184.923 33.6703C184.23 33.6703 183.629 33.116 183.629 32.3769V19.674C183.629 18.9811 184.184 18.3806 184.923 18.3806C185.662 18.3806 186.216 18.9349 186.216 19.674V32.4231C186.216 33.116 185.616 33.6703 184.923 33.6703Z" fill="#8AA594"/>
<path d="M194.208 33.4394C193.468 33.4394 192.914 32.8389 192.914 32.1461L193.237 5.49304C193.237 4.98493 193.561 4.523 194.023 4.33823C194.485 4.15346 195.039 4.24585 195.409 4.61539L207.834 16.8102L216.287 4.80016C216.611 4.33823 217.165 4.15346 217.719 4.33823C218.228 4.523 218.597 4.98493 218.597 5.53924V32.1923C218.597 32.8851 218.043 33.4856 217.304 33.4856C216.565 33.4856 216.01 32.9313 216.01 32.1923V9.55798L208.989 19.4893C208.758 19.8127 208.435 19.9975 208.065 20.0437C207.696 20.0898 207.326 19.9513 207.049 19.6741L195.732 8.54174L195.455 32.1923C195.501 32.8851 194.9 33.4394 194.208 33.4394Z" fill="#8AA594"/>
<path d="M42.9736 33.4394C42.6502 33.4394 42.2807 33.3009 42.0497 33.0699C41.8188 32.8389 41.6802 32.4694 41.6802 32.0999L43.1583 5.44685C43.2045 4.75397 43.7588 4.24585 44.4055 4.24585C49.7177 4.24585 54.0597 8.58794 54.0597 13.9001C54.0597 18.2421 51.1958 21.9375 47.2233 23.1385L55.6765 31.0836C56.046 31.4532 56.1846 32.0075 55.9998 32.4694C55.8151 32.9313 55.3531 33.2547 54.845 33.3009L42.9736 33.4394ZM44.6827 24.201L44.3131 30.8527L51.7039 30.7603L44.6827 24.201ZM44.8674 20.9213C44.9136 20.9675 44.9598 20.9675 45.006 21.0137C48.7014 20.7365 51.6115 17.6416 51.6115 13.9001C51.6115 10.3894 49.0248 7.43313 45.6989 6.87882L44.8674 20.9213Z" fill="#8AA594"/>
<path d="M29.9011 16.7639C29.2082 16.7639 28.6539 16.2096 28.6539 15.5167C28.6539 14.8238 29.162 14.2233 29.9011 14.2233L36.6914 14.0386C37.3843 13.9924 37.9848 14.5467 37.9848 15.2858C37.9848 15.9787 37.4767 16.5792 36.7376 16.5792L29.9011 16.7639C29.9473 16.7639 29.9473 16.7639 29.9011 16.7639Z" fill="#8AA594"/>
<path d="M222.616 9.41933C222.292 9.41933 222.015 9.32695 221.738 9.09598C221.23 8.63406 221.184 7.8026 221.646 7.29448L228.02 0.411811C228.482 -0.096305 229.314 -0.142497 229.822 0.319427C230.33 0.781351 230.376 1.61281 229.914 2.12093L223.54 9.0036C223.309 9.28075 222.939 9.41933 222.616 9.41933Z" fill="#8AA594"/>
<path d="M239.615 7.01744H232.686C231.993 7.01744 231.392 6.46313 231.392 5.72405C231.392 4.98497 231.947 4.43066 232.686 4.43066H239.615C240.308 4.43066 240.908 4.98497 240.908 5.72405C240.908 6.46313 240.308 7.01744 239.615 7.01744Z" fill="#8AA594"/>
<path d="M181.505 15.1009L178.964 6.60154L187.833 4.47668L189.958 12.9761L181.505 15.1009ZM182.151 8.40304L183.214 12.006L186.863 11.0822L185.939 7.47919L182.151 8.40304Z" fill="#8AA594"/>
<path d="M269.917 33.4394C269.409 33.4394 268.947 33.1623 268.762 32.6541L259.293 9.32698L255.736 16.9487L248.899 32.6541C248.622 33.3008 247.883 33.578 247.236 33.3008C246.59 33.0237 246.313 32.2846 246.59 31.6379L253.472 15.8863L258.276 5.58539C258.507 5.12347 258.969 4.84631 259.477 4.84631C259.985 4.84631 260.447 5.16966 260.632 5.63158L271.118 31.6841C271.395 32.3308 271.072 33.0699 270.425 33.347C270.24 33.3932 270.102 33.4394 269.917 33.4394Z" fill="#8AA594"/>
<path d="M267.192 28.3121H250.747C250.054 28.3121 249.454 27.7578 249.454 27.0187C249.454 26.2797 250.008 25.7253 250.747 25.7253H267.192C267.884 25.7253 268.485 26.2797 268.485 27.0187C268.485 27.7578 267.884 28.3121 267.192 28.3121Z" fill="#8AA594"/>
<path d="M23.4342 33.4394C22.9261 33.4394 22.4641 33.1623 22.2794 32.6541L12.8099 9.32698L9.25311 16.9487L2.41664 32.6541C2.13948 33.3008 1.4004 33.578 0.753711 33.3008C0.107017 33.0237 -0.170137 32.2846 0.107017 31.6379L6.98969 15.8863L11.7937 5.58539C12.0247 5.12347 12.4866 4.84631 12.9947 4.84631C13.5028 4.84631 13.9647 5.16966 14.1495 5.63158L24.7276 31.6379C25.0047 32.2846 24.6814 33.0237 24.0347 33.3008C23.7575 33.3932 23.6189 33.4394 23.4342 33.4394Z" fill="#8AA594"/>
<path d="M20.7088 28.3121H4.26433C3.57145 28.3121 2.97095 27.7578 2.97095 27.0187C2.97095 26.2797 3.52526 25.7253 4.26433 25.7253H20.7088C21.4017 25.7253 22.0022 26.2797 22.0022 27.0187C22.0022 27.7578 21.4017 28.3121 20.7088 28.3121Z" fill="#8AA594"/>
<path d="M69.4418 33.9475C66.5779 33.9475 63.8064 32.8851 61.6353 30.9912C59.1871 28.8201 57.8475 25.679 57.8475 22.076C57.8475 15.3781 63.0673 9.97363 69.488 9.97363C71.9362 9.97363 74.6616 10.8975 76.8326 12.5142C79.6503 14.5467 81.3595 18.1497 81.3595 22.1222C81.3133 28.6354 76.0011 33.9475 69.4418 33.9475ZM69.4418 12.468C64.453 12.468 60.3419 16.7639 60.3419 22.0299C60.3419 24.8938 61.4044 27.3882 63.2982 29.0511C65.0074 30.5293 67.1784 31.3607 69.4418 31.3607C74.5692 31.3607 78.7727 27.1572 78.7727 22.0299C78.7727 18.8888 77.4793 16.071 75.3083 14.5005C73.553 13.2533 71.3357 12.468 69.4418 12.468Z" fill="#8AA594"/>
<path d="M90.9675 58.0137V55.0574H87.4568V58.0137H86.2558V51.2234H87.4568V53.9949H90.9675V51.2234H92.1685V58.0137H90.9675Z" fill="#8AA594"/>
<path d="M97.3882 58.0138V57.3209C97.0186 57.829 96.4643 58.1062 95.8176 58.1062C94.5705 58.1062 93.6466 57.1361 93.6466 55.5194C93.6466 53.9488 94.5705 52.9326 95.8176 52.9326C96.4181 52.9326 97.0186 53.2098 97.3882 53.7179V53.1174H98.4506V58.0138H97.3882ZM97.3882 56.5356V54.5955C97.1572 54.226 96.6029 53.9489 96.0948 53.9489C95.2633 53.9489 94.709 54.6417 94.709 55.5656C94.709 56.4894 95.2633 57.1823 96.0948 57.1823C96.6491 57.1823 97.1572 56.9052 97.3882 56.5356Z" fill="#8AA594"/>
<path d="M103.347 58.0138V54.9651C103.347 54.1798 102.977 53.9489 102.377 53.9489C101.823 53.9489 101.361 54.2722 101.13 54.5956V58.0138H100.067V53.1174H101.13V53.8103C101.453 53.4408 102.1 53.025 102.839 53.025C103.901 53.025 104.409 53.5793 104.409 54.5956V58.06H103.347V58.0138Z" fill="#8AA594"/>
<path d="M109.491 58.0137V57.3208C109.121 57.829 108.567 58.1061 107.92 58.1061C106.673 58.1061 105.749 57.1361 105.749 55.5193C105.749 53.9488 106.673 52.9326 107.92 52.9326C108.521 52.9326 109.121 53.2097 109.491 53.7178V51.1772H110.553V57.9675H109.491V58.0137ZM109.491 56.5356V54.5955C109.26 54.2259 108.705 53.9488 108.197 53.9488C107.366 53.9488 106.811 54.6417 106.811 55.5655C106.811 56.4894 107.366 57.1823 108.197 57.1823C108.705 57.1823 109.213 56.9051 109.491 56.5356Z" fill="#8AA594"/>
<path d="M118.129 58.0138V54.8265C118.129 54.3184 117.898 53.9489 117.343 53.9489C116.881 53.9489 116.419 54.2722 116.189 54.5956V58.0138H115.126V54.8265C115.126 54.3184 114.895 53.9489 114.295 53.9489C113.833 53.9489 113.371 54.2722 113.186 54.5956V58.0138H112.124V53.1174H113.186V53.8103C113.371 53.4869 114.017 53.025 114.803 53.025C115.542 53.025 116.004 53.3946 116.142 53.9489C116.419 53.4869 117.066 53.025 117.805 53.025C118.729 53.025 119.237 53.5331 119.237 54.5032V58.06H118.129V58.0138Z" fill="#8AA594"/>
<path d="M123.764 58.0137V57.5056C123.394 57.9213 122.84 58.1523 122.193 58.1523C121.408 58.1523 120.484 57.598 120.484 56.5356C120.484 55.427 121.408 54.9188 122.193 54.9188C122.84 54.9188 123.441 55.1498 123.764 55.5655V54.8265C123.764 54.2721 123.302 53.9026 122.609 53.9026C122.055 53.9026 121.593 54.0874 121.177 54.5031L120.762 53.764C121.316 53.2097 122.055 52.9788 122.84 52.9788C123.949 52.9788 124.873 53.4407 124.873 54.7803V58.0137H123.764ZM123.764 56.9051V56.166C123.533 55.8427 123.071 55.6579 122.609 55.6579C122.009 55.6579 121.547 55.9813 121.547 56.5356C121.547 57.0437 122.009 57.4132 122.609 57.4132C123.071 57.4132 123.533 57.2285 123.764 56.9051Z" fill="#8AA594"/>
<path d="M129.908 58.0137V57.3208C129.538 57.829 128.984 58.1061 128.337 58.1061C127.09 58.1061 126.166 57.1361 126.166 55.5193C126.166 53.9488 127.09 52.9326 128.337 52.9326C128.938 52.9326 129.538 53.2097 129.908 53.7178V51.1772H130.97V57.9675H129.908V58.0137ZM129.908 56.5356V54.5955C129.677 54.2259 129.122 53.9488 128.614 53.9488C127.783 53.9488 127.229 54.6417 127.229 55.5655C127.229 56.4894 127.783 57.1823 128.614 57.1823C129.122 57.1823 129.631 56.9051 129.908 56.5356Z" fill="#8AA594"/>
<path d="M132.217 55.5655C132.217 54.1336 133.234 52.9788 134.712 52.9788C136.19 52.9788 137.114 54.0874 137.114 55.6579V55.8889H133.326C133.418 56.628 133.973 57.2285 134.896 57.2285C135.358 57.2285 135.959 57.0437 136.282 56.6742L136.79 57.367C136.282 57.829 135.589 58.0599 134.804 58.0599C133.326 58.1523 132.217 57.1361 132.217 55.5655ZM134.712 53.8564C133.788 53.8564 133.372 54.5493 133.326 55.1498H136.097C136.097 54.5955 135.682 53.8564 134.712 53.8564Z" fill="#8AA594"/>
<path d="M140.717 57.4132L141.271 56.4894C141.548 56.7665 141.918 57.0437 142.426 57.0437C143.165 57.0437 143.627 56.5356 143.627 55.7965V51.1772H144.828V55.7965C144.828 57.3208 143.858 58.0599 142.518 58.0599C141.825 58.1523 141.179 57.9213 140.717 57.4132Z" fill="#8AA594"/>
<path d="M146.121 55.5655C146.121 54.1336 147.137 52.9788 148.616 52.9788C150.094 52.9788 151.018 54.0874 151.018 55.6579V55.8889H147.23C147.322 56.628 147.877 57.2285 148.8 57.2285C149.262 57.2285 149.863 57.0437 150.186 56.6742L150.694 57.367C150.186 57.829 149.493 58.0599 148.708 58.0599C147.23 58.1523 146.121 57.1361 146.121 55.5655ZM148.616 53.8564C147.692 53.8564 147.276 54.5493 147.23 55.1498H150.001C149.955 54.5955 149.586 53.8564 148.616 53.8564Z" fill="#8AA594"/>
<path d="M156.514 58.0137L155.36 54.4107L154.205 58.0137H153.096L151.572 53.1173H152.681L153.697 56.6741L154.852 53.1173H155.775L156.93 56.6741L157.946 53.1173H159.055L157.531 58.0137H156.514Z" fill="#8AA594"/>
<path d="M159.748 55.5655C159.748 54.1336 160.764 52.9788 162.242 52.9788C163.72 52.9788 164.644 54.0874 164.644 55.6579V55.8889H160.857C160.949 56.628 161.503 57.2285 162.427 57.2285C162.889 57.2285 163.49 57.0437 163.813 56.6742L164.321 57.367C163.813 57.829 163.12 58.0599 162.335 58.0599C160.857 58.1523 159.748 57.1361 159.748 55.5655ZM162.242 53.8564C161.318 53.8564 160.903 54.5493 160.857 55.1498H163.628C163.582 54.5955 163.212 53.8564 162.242 53.8564Z" fill="#8AA594"/>
<path d="M165.938 58.0137V51.2234H167V58.0137H165.938Z" fill="#8AA594"/>
<path d="M168.525 58.0137V51.2234H169.587V58.0137H168.525Z" fill="#8AA594"/>
<path d="M170.88 55.5655C170.88 54.1336 171.897 52.9788 173.375 52.9788C174.853 52.9788 175.777 54.0874 175.777 55.6579V55.8889H171.989C172.081 56.628 172.636 57.2285 173.559 57.2285C174.021 57.2285 174.622 57.0437 174.945 56.6742L175.453 57.367C174.945 57.829 174.252 58.0599 173.467 58.0599C171.989 58.1523 170.88 57.1361 170.88 55.5655ZM173.375 53.8564C172.451 53.8564 172.035 54.5493 171.989 55.1498H174.76C174.76 54.5955 174.345 53.8564 173.375 53.8564Z" fill="#8AA594"/>
<path d="M177.07 58.0138V53.1174H178.133V53.8565C178.502 53.3946 179.103 53.025 179.749 53.025V54.0874C179.657 54.0874 179.564 54.0413 179.426 54.0413C178.964 54.0413 178.363 54.3646 178.179 54.688V58.0138H177.07Z" fill="#8AA594"/>
<path d="M181.089 58.9837C181.181 59.0299 181.366 59.0761 181.505 59.0761C181.828 59.0761 182.059 58.9837 182.197 58.6604L182.428 58.1061L180.396 53.1173H181.551L182.983 56.8127L184.415 53.1173H185.57L183.214 58.8914C182.89 59.7228 182.29 60 181.505 60C181.366 60 181.043 59.9538 180.904 59.9076L181.089 58.9837Z" fill="#8AA594"/>
</svg>
