<svg width="31" height="30" viewBox="0 0 31 30" fill="none" xmlns="http://www.w3.org/2000/svg">
<path d="M15.675 11.475L14.1 9.9L16.875 7.125H10.05V4.875H16.875L14.1 2.1L15.675 0.525L21.15 6L15.675 11.475ZM8.55 30C7.8 30 7.1625 29.7375 6.6375 29.2125C6.1125 28.6875 5.85 28.05 5.85 27.3C5.85 26.55 6.1125 25.9125 6.6375 25.3875C7.1625 24.8625 7.8 24.6 8.55 24.6C9.3 24.6 9.9375 24.8625 10.4625 25.3875C10.9875 25.9125 11.25 26.55 11.25 27.3C11.25 28.05 10.9875 28.6875 10.4625 29.2125C9.9375 29.7375 9.3 30 8.55 30ZM23.7 30C22.95 30 22.3125 29.7375 21.7875 29.2125C21.2625 28.6875 21 28.05 21 27.3C21 26.55 21.2625 25.9125 21.7875 25.3875C22.3125 24.8625 22.95 24.6 23.7 24.6C24.45 24.6 25.0875 24.8625 25.6125 25.3875C26.1375 25.9125 26.4 26.55 26.4 27.3C26.4 28.05 26.1375 28.6875 25.6125 29.2125C25.0875 29.7375 24.45 30 23.7 30ZM0 2.25V0H4.35L10.725 13.65H21.525L27.525 3.15H30.0375L23.9625 14.5125C23.6875 14.9875 23.3312 15.3687 22.8937 15.6562C22.4562 15.9438 21.975 16.0875 21.45 16.0875H10.0875L7.9875 19.9875H26.4V22.2375H8.325C7.375 22.2375 6.65625 21.8625 6.16875 21.1125C5.68125 20.3625 5.65 19.6 6.075 18.825L8.475 14.4L2.925 2.25H0Z" fill="#8AA594"/>
</svg>
